<svg xmlns="http://www.w3.org/2000/svg" width="220" height="220" viewBox="0 0 220 220"><rect width="100%" height="100%" fill="#DDDDDD"/><path fill="#999999" d="m49.99 112.785-.51.02h-.83q-.2 0-.41-.01v2.12q0 .66-.02 1.26t-.07.91l2.04-.07v1.85h-7.13v-1.58q.4-.03.72-.08.33-.05.54-.26.22-.2.34-.61.11-.41.11-1.14v-9.2q0-.33.01-.64l.02-.61q.01-.28.03-.52.02-.23.04-.38l-1.81.07v-1.85l6.84-.05q1.55-.01 2.83.29 1.27.31 2.17.94.9.64 1.39 1.64.5 1 .5 2.39.01 1.01-.4 1.96-.41.96-1.25 1.73t-2.12 1.27q-1.27.49-3.03.55m-.67-1.71q.99 0 1.7-.25.72-.26 1.17-.75.46-.49.68-1.21.21-.71.21-1.63 0-.79-.15-1.37-.15-.57-.41-.96-.26-.4-.59-.64t-.69-.36-.72-.16q-.35-.04-.66-.04-.39 0-.68.05-.3.06-.51.26-.2.2-.32.58-.11.37-.11 1v5.41l.53.04q.27.03.55.03m13.16-10.33v14.69l-.02.52q-.01.28-.03.58t-.04.57l1.56-.07v1.83h-6.3v-1.56q.51 0 .79-.15.29-.15.43-.43.14-.29.18-.68.03-.39.03-.87v-9.87q0-.43.02-.99.02-.57.08-1.11l-1.69.07v-1.81q.83 0 1.47-.07t1.09-.18q.45-.1.73-.23.27-.12.4-.24zm9.45 15.28.01-2.68q-.68.07-1.28.25-.6.17-1.04.46-.43.29-.69.68-.25.4-.25.92.01.34.13.57.12.24.3.39t.42.22.5.07q.56 0 1.04-.23.48-.24.86-.65m-6.14-6.38q0-.71.39-1.29.39-.59 1.08-1 .68-.42 1.61-.65.92-.23 1.98-.23 1.05 0 1.88.27t1.39.83q.57.57.87 1.43.3.87.3 2.07 0 .61-.01 1.07v.89q0 .43-.01.9v1.07q0 .18-.01.43 0 .24-.01.52l-.02.58q-.02.3-.04.57l1.54-.07v1.83H72.2q-.05-.34-.07-.57t-.03-.53h-.02q-.82.82-1.71 1.15-.89.34-1.84.34-.77 0-1.38-.24t-1.03-.68q-.42-.43-.64-1.01t-.22-1.27q0-.76.27-1.37t.74-1.09q.48-.48 1.12-.84.65-.35 1.39-.58.74-.24 1.55-.36.81-.13 1.62-.17v-1.25q0-.48-.08-.89-.08-.4-.28-.69-.2-.3-.53-.46-.33-.17-.82-.15t-.91.2q-.43.17-.73.49.19.2.24.45.05.26.05.44 0 .26-.09.52-.1.26-.29.48-.2.22-.51.36-.3.14-.73.14-.35-.01-.63-.15-.28-.13-.47-.35-.18-.22-.28-.51t-.1-.63m19.7.36q0-.21.07-.51t.22-.53q-.13-.24-.34-.39-.2-.15-.43-.25-.23-.09-.46-.12-.22-.04-.4-.04-.61 0-1.11.28-.51.27-.88.82-.37.54-.57 1.34-.21.8-.21 1.84 0 .91.17 1.76.17.84.56 1.48.39.65 1.02 1.04.63.38 1.56.38.48 0 .97-.13.48-.14.93-.38.44-.24.85-.58.4-.34.72-.75l1.1 1.07q-.66.9-1.35 1.47t-1.39.89q-.71.32-1.4.44t-1.35.12q-1.21 0-2.29-.41-1.07-.41-1.87-1.2-.8-.78-1.27-1.92t-.47-2.6q0-1.35.46-2.56.45-1.22 1.27-2.12t1.97-1.43q1.15-.54 2.54-.54 1.14 0 2.01.28.87.29 1.45.74.58.46.87 1.05t.29 1.23q0 .36-.11.69t-.33.57q-.21.25-.53.39t-.72.14q-.44 0-.73-.15-.3-.16-.48-.38-.19-.23-.27-.51-.07-.27-.07-.52m10.92-1.84q-.53 0-.95.2-.41.2-.72.55-.3.35-.49.85-.2.5-.28 1.1h4.42q-.03-.74-.18-1.26-.15-.51-.41-.84-.27-.32-.62-.46t-.77-.14m5.29 4.24-7.88.14q0 .99.18 1.83.18.83.58 1.44.4.6 1.04.95.65.34 1.58.34.37 0 .81-.09.45-.1.91-.31t.93-.55q.47-.35.88-.85l1.08 1.02q-.64.92-1.37 1.5-.73.57-1.46.89-.73.31-1.44.43-.71.11-1.32.11-1.32 0-2.41-.45-1.09-.44-1.88-1.28-.78-.83-1.21-2t-.43-2.64q0-1.26.43-2.42.43-1.15 1.21-2.04.79-.89 1.89-1.42 1.11-.53 2.47-.53.67 0 1.33.12t1.27.39q.6.28 1.12.72.52.45.9 1.11.37.65.59 1.54t.2 2.05m13.74-.62v3.22q0 .18-.01.43 0 .24-.01.52-.02.28-.03.58-.02.3-.04.57l1.55-.07v1.83h-6.29v-1.56q.5 0 .79-.15t.43-.43q.14-.29.18-.68.03-.39.03-.87l-.01-3.42q-.01-1.59-.48-2.32-.47-.74-1.47-.74-.62.01-1.2.26t-.99.62v5.86l-.02.52q-.01.28-.03.58t-.04.57l1.56-.07v1.83h-6.3v-1.56q.51 0 .79-.15.29-.15.43-.43.14-.29.18-.68.03-.39.03-.87v-9.87q0-.43.02-.99.02-.57.08-1.11l-1.69.07v-1.81q.83 0 1.47-.07t1.09-.18q.45-.1.73-.23.27-.12.4-.24h1.3v7.07q.35-.28.8-.52.46-.24.93-.42.48-.19.94-.29.46-.11.82-.11 1.11 0 1.87.31.77.31 1.26.96.48.64.71 1.65.22 1.01.22 2.39m8.66-3.62q-.7.02-1.17.41-.47.38-.76.99-.3.6-.42 1.37t-.12 1.55q0 .93.14 1.84.15.91.47 1.62.32.72.83 1.16.51.45 1.24.45.71-.01 1.17-.4.45-.39.71-1 .26-.62.36-1.38t.1-1.54q0-.89-.12-1.79-.12-.91-.42-1.64t-.79-1.18q-.48-.46-1.22-.46m.05-1.69q1.29 0 2.39.43 1.11.42 1.92 1.21.81.8 1.27 1.94.46 1.15.46 2.59 0 1.51-.44 2.73-.44 1.23-1.23 2.09t-1.89 1.32q-1.1.47-2.41.47-1.3 0-2.42-.43t-1.94-1.22-1.29-1.92-.47-2.55q0-1.49.48-2.72t1.31-2.1q.82-.88 1.92-1.36 1.11-.48 2.34-.48m12.12-5.73v14.69l-.02.52q-.01.28-.03.58t-.04.57l1.56-.07v1.83h-6.29v-1.56q.5 0 .79-.15.28-.15.43-.43.14-.29.17-.68.04-.39.04-.87v-9.87q0-.43.01-.99.02-.57.08-1.11l-1.69.07v-1.81q.83 0 1.47-.07t1.09-.18q.45-.1.73-.23.28-.12.4-.24zm13.01 0h1.3v14.69l-.02.52q-.01.28-.03.58t-.04.57l1.56-.07v1.83h-4.56l-.13-1.11h-.02q-.8.83-1.65 1.16-.85.34-1.74.34-1.08 0-1.97-.43t-1.53-1.22-.99-1.92q-.35-1.12-.35-2.52 0-1.45.43-2.67.43-1.23 1.21-2.12.77-.89 1.87-1.39 1.1-.51 2.43-.51.67 0 1.18.14.51.13.96.3v-2.02l.02-.53q.01-.28.03-.58t.04-.56l-1.69.07v-1.83q.83 0 1.47-.07t1.09-.18q.45-.1.73-.23.27-.12.4-.24m-4.08 16.32q.61 0 1.14-.32t.85-.82v-7.22q-.26-.18-.72-.31-.46-.14-.98-.14-.84.03-1.39.42t-.88 1.03q-.32.64-.46 1.45-.13.81-.13 1.65 0 .77.14 1.54.14.76.45 1.36.31.61.8.98.49.38 1.18.38m14.3-8.9q-.53 0-.94.2-.42.2-.72.55-.31.35-.5.85t-.28 1.1h4.42q-.02-.74-.17-1.26-.16-.51-.42-.84-.26-.32-.62-.46-.35-.14-.77-.14m5.3 4.24-7.89.14q0 .99.18 1.83.18.83.58 1.44.4.6 1.05.95.64.34 1.58.34.36 0 .81-.09.44-.1.91-.31.46-.21.93-.55.47-.35.88-.85l1.07 1.02q-.64.92-1.37 1.5-.72.57-1.46.89-.73.31-1.44.43-.71.11-1.32.11-1.32 0-2.41-.45-1.09-.44-1.88-1.28-.78-.83-1.21-2t-.43-2.64q0-1.26.43-2.42.43-1.15 1.21-2.04.79-.89 1.9-1.42 1.1-.53 2.46-.53.67 0 1.33.12.67.12 1.27.39.6.28 1.13.72.52.45.89 1.11.38.65.59 1.54.22.89.21 2.05m10.04-5.93q.42 0 .8.12t.67.36.46.61q.17.38.17.91 0 .28-.09.58-.1.29-.3.54t-.52.4q-.32.16-.78.16-.24 0-.5-.06-.26-.07-.48-.22-.21-.16-.37-.43t-.2-.69q-.36 0-.73.24t-.69.59q-.32.36-.57.77-.24.41-.35.74v4.34l-.02.52q-.01.28-.03.58t-.04.57l1.56-.07v1.83h-6.3v-1.56q.51 0 .79-.15.29-.15.43-.43.14-.29.18-.68.03-.39.03-.87v-4.04q0-.44.02-.97t.08-1.07l-1.69.07v-1.82q.83 0 1.47-.07t1.09-.18q.45-.1.73-.22.27-.13.4-.24h1.18l.11 2.06h.03q.24-.32.57-.71.34-.38.78-.72.44-.33.96-.56.53-.23 1.15-.23"/></svg>